<mxfile host="app.diagrams.net" modified="2023-10-28T17:18:17.702Z" agent="Mozilla/5.0 (Windows NT 10.0; Win64; x64) AppleWebKit/537.36 (KHTML, like Gecko) Chrome/118.0.0.0 Safari/537.36" etag="N428EzuUphLB5RHtHCOV" version="22.0.8" type="device">
  <diagram name="Page-1" id="4lEkWUVy1VVtrQNJi2iB">
    <mxGraphModel dx="1050" dy="534" grid="1" gridSize="10" guides="1" tooltips="1" connect="1" arrows="1" fold="1" page="1" pageScale="1" pageWidth="850" pageHeight="1100" math="0" shadow="0">
      <root>
        <mxCell id="0" />
        <mxCell id="1" parent="0" />
        <mxCell id="2bevjAJKMJdt6_6JYhVt-13" style="edgeStyle=orthogonalEdgeStyle;rounded=0;orthogonalLoop=1;jettySize=auto;html=1;exitX=1;exitY=0.5;exitDx=0;exitDy=0;entryX=0;entryY=0.5;entryDx=0;entryDy=0;" parent="1" source="2bevjAJKMJdt6_6JYhVt-1" target="2bevjAJKMJdt6_6JYhVt-10" edge="1">
          <mxGeometry relative="1" as="geometry" />
        </mxCell>
        <mxCell id="2bevjAJKMJdt6_6JYhVt-1" value="User" style="swimlane;whiteSpace=wrap;html=1;" parent="1" vertex="1">
          <mxGeometry x="30" y="140" width="200" height="180" as="geometry">
            <mxRectangle x="30" y="140" width="70" height="30" as="alternateBounds" />
          </mxGeometry>
        </mxCell>
        <mxCell id="2bevjAJKMJdt6_6JYhVt-2" value="" style="shape=image;html=1;verticalAlign=top;verticalLabelPosition=bottom;labelBackgroundColor=#ffffff;imageAspect=0;aspect=fixed;image=https://cdn1.iconfinder.com/data/icons/ionicons-fill-vol-2/512/logo-chrome-128.png" parent="2bevjAJKMJdt6_6JYhVt-1" vertex="1">
          <mxGeometry x="80" y="30" width="34" height="34" as="geometry" />
        </mxCell>
        <mxCell id="2bevjAJKMJdt6_6JYhVt-4" value="web" style="text;html=1;align=center;verticalAlign=middle;resizable=0;points=[];autosize=1;strokeColor=none;fillColor=none;" parent="2bevjAJKMJdt6_6JYhVt-1" vertex="1">
          <mxGeometry x="72" y="64" width="50" height="30" as="geometry" />
        </mxCell>
        <mxCell id="2bevjAJKMJdt6_6JYhVt-5" value="" style="outlineConnect=0;dashed=0;verticalLabelPosition=bottom;verticalAlign=top;align=center;html=1;shape=mxgraph.aws3.mobile_client;fillColor=#000000;gradientColor=none;" parent="2bevjAJKMJdt6_6JYhVt-1" vertex="1">
          <mxGeometry x="81.88" y="110" width="30.25" height="37" as="geometry" />
        </mxCell>
        <mxCell id="2bevjAJKMJdt6_6JYhVt-6" value="mobile" style="text;html=1;align=center;verticalAlign=middle;resizable=0;points=[];autosize=1;strokeColor=none;fillColor=none;" parent="2bevjAJKMJdt6_6JYhVt-1" vertex="1">
          <mxGeometry x="67.01" y="147" width="60" height="30" as="geometry" />
        </mxCell>
        <mxCell id="2bevjAJKMJdt6_6JYhVt-14" style="edgeStyle=orthogonalEdgeStyle;rounded=0;orthogonalLoop=1;jettySize=auto;html=1;exitX=0;exitY=0.75;exitDx=0;exitDy=0;" parent="1" source="2bevjAJKMJdt6_6JYhVt-10" edge="1">
          <mxGeometry relative="1" as="geometry">
            <mxPoint x="230" y="270" as="targetPoint" />
          </mxGeometry>
        </mxCell>
        <mxCell id="Ncdaa-sAqrYBmP8-Mcvt-5" style="edgeStyle=orthogonalEdgeStyle;rounded=0;orthogonalLoop=1;jettySize=auto;html=1;exitX=1;exitY=0.5;exitDx=0;exitDy=0;entryX=0;entryY=0.5;entryDx=0;entryDy=0;" parent="1" source="2bevjAJKMJdt6_6JYhVt-10" target="2bevjAJKMJdt6_6JYhVt-17" edge="1">
          <mxGeometry relative="1" as="geometry" />
        </mxCell>
        <mxCell id="2bevjAJKMJdt6_6JYhVt-10" value="UI&lt;br&gt;Engine" style="rounded=1;whiteSpace=wrap;html=1;" parent="1" vertex="1">
          <mxGeometry x="270" y="150" width="60" height="160" as="geometry" />
        </mxCell>
        <mxCell id="2bevjAJKMJdt6_6JYhVt-17" value="AMC services" style="swimlane;whiteSpace=wrap;html=1;" parent="1" vertex="1">
          <mxGeometry x="410" y="97.5" width="140" height="265" as="geometry" />
        </mxCell>
        <mxCell id="2bevjAJKMJdt6_6JYhVt-18" value="User Account&lt;br&gt;Service" style="rounded=1;whiteSpace=wrap;html=1;" parent="2bevjAJKMJdt6_6JYhVt-17" vertex="1">
          <mxGeometry x="10" y="44" width="120" height="60" as="geometry" />
        </mxCell>
        <mxCell id="2bevjAJKMJdt6_6JYhVt-20" value="portfolio optimizer" style="rounded=1;whiteSpace=wrap;html=1;" parent="2bevjAJKMJdt6_6JYhVt-17" vertex="1">
          <mxGeometry x="10" y="115" width="120" height="60" as="geometry" />
        </mxCell>
        <mxCell id="Ncdaa-sAqrYBmP8-Mcvt-15" value="WealthWish Service" style="rounded=1;whiteSpace=wrap;html=1;" parent="2bevjAJKMJdt6_6JYhVt-17" vertex="1">
          <mxGeometry x="10" y="185" width="120" height="60" as="geometry" />
        </mxCell>
        <mxCell id="2bevjAJKMJdt6_6JYhVt-24" value="Data base" style="swimlane;whiteSpace=wrap;html=1;" parent="1" vertex="1">
          <mxGeometry x="620" y="114" width="200" height="115" as="geometry" />
        </mxCell>
        <mxCell id="Ncdaa-sAqrYBmP8-Mcvt-4" value="User&lt;br&gt;Userprofile&lt;br&gt;investment&lt;br&gt;equitysymbol&lt;br&gt;goal&lt;br&gt;firePlan" style="text;html=1;align=center;verticalAlign=middle;resizable=0;points=[];autosize=1;strokeColor=none;fillColor=none;" parent="2bevjAJKMJdt6_6JYhVt-24" vertex="1">
          <mxGeometry x="50" y="20.5" width="90" height="100" as="geometry" />
        </mxCell>
        <mxCell id="Ncdaa-sAqrYBmP8-Mcvt-2" style="edgeStyle=orthogonalEdgeStyle;rounded=0;orthogonalLoop=1;jettySize=auto;html=1;exitX=1;exitY=0.5;exitDx=0;exitDy=0;entryX=0;entryY=0.5;entryDx=0;entryDy=0;" parent="1" source="2bevjAJKMJdt6_6JYhVt-18" target="2bevjAJKMJdt6_6JYhVt-24" edge="1">
          <mxGeometry relative="1" as="geometry">
            <mxPoint x="640" y="160" as="targetPoint" />
          </mxGeometry>
        </mxCell>
        <mxCell id="Ncdaa-sAqrYBmP8-Mcvt-8" value="Moneymetric" style="swimlane;whiteSpace=wrap;html=1;" parent="1" vertex="1">
          <mxGeometry x="660" y="272.5" width="170" height="270" as="geometry" />
        </mxCell>
        <mxCell id="Ncdaa-sAqrYBmP8-Mcvt-11" style="edgeStyle=orthogonalEdgeStyle;rounded=0;orthogonalLoop=1;jettySize=auto;html=1;" parent="Ncdaa-sAqrYBmP8-Mcvt-8" source="Ncdaa-sAqrYBmP8-Mcvt-6" target="Ncdaa-sAqrYBmP8-Mcvt-10" edge="1">
          <mxGeometry relative="1" as="geometry" />
        </mxCell>
        <mxCell id="Ncdaa-sAqrYBmP8-Mcvt-6" value="historical data engine&lt;br&gt;(yahoo finance)" style="html=1;verticalLabelPosition=bottom;align=center;labelBackgroundColor=#ffffff;verticalAlign=top;strokeWidth=2;strokeColor=#0080F0;shadow=0;dashed=0;shape=mxgraph.ios7.icons.settings;" parent="Ncdaa-sAqrYBmP8-Mcvt-8" vertex="1">
          <mxGeometry x="45" y="170" width="70" height="61" as="geometry" />
        </mxCell>
        <mxCell id="Ncdaa-sAqrYBmP8-Mcvt-10" value="MoneyMetricInsight&lt;br&gt;Service" style="sketch=0;outlineConnect=0;fontColor=#232F3E;gradientColor=none;fillColor=#E7157B;strokeColor=none;dashed=0;verticalLabelPosition=bottom;verticalAlign=top;align=center;html=1;fontSize=12;fontStyle=0;aspect=fixed;pointerEvents=1;shape=mxgraph.aws4.cloudwatch_metrics_insights;" parent="Ncdaa-sAqrYBmP8-Mcvt-8" vertex="1">
          <mxGeometry x="41.5" y="30" width="77" height="78" as="geometry" />
        </mxCell>
        <mxCell id="Ncdaa-sAqrYBmP8-Mcvt-12" value="&lt;font style=&quot;font-size: 14px;&quot;&gt;MoneyMetric Model&lt;/font&gt;" style="points=[[0.25,0,0],[0.5,0,0],[0.75,0,0],[1,0.25,0],[1,0.5,0],[1,0.75,0],[0.75,1,0],[0.5,1,0],[0.25,1,0],[0,0.75,0],[0,0.5,0],[0,0.25,0]];rounded=1;dashed=1;dashPattern=5 2 1 2;labelPosition=center;verticalLabelPosition=middle;align=center;verticalAlign=middle;fontSize=8;html=1;whiteSpace=wrap;" parent="1" vertex="1">
          <mxGeometry x="850" y="300.5" width="140" height="80" as="geometry" />
        </mxCell>
        <mxCell id="Ncdaa-sAqrYBmP8-Mcvt-13" style="edgeStyle=orthogonalEdgeStyle;rounded=0;orthogonalLoop=1;jettySize=auto;html=1;entryX=0;entryY=0.5;entryDx=0;entryDy=0;entryPerimeter=0;" parent="1" source="Ncdaa-sAqrYBmP8-Mcvt-10" target="Ncdaa-sAqrYBmP8-Mcvt-12" edge="1">
          <mxGeometry relative="1" as="geometry" />
        </mxCell>
        <mxCell id="Ncdaa-sAqrYBmP8-Mcvt-14" style="edgeStyle=orthogonalEdgeStyle;rounded=0;orthogonalLoop=1;jettySize=auto;html=1;exitX=1;exitY=0.5;exitDx=0;exitDy=0;entryX=0.5;entryY=0;entryDx=0;entryDy=0;" parent="1" source="2bevjAJKMJdt6_6JYhVt-20" target="Ncdaa-sAqrYBmP8-Mcvt-8" edge="1">
          <mxGeometry relative="1" as="geometry" />
        </mxCell>
        <mxCell id="GsYMVkBJt3CzwP905dxk-4" style="edgeStyle=orthogonalEdgeStyle;rounded=0;orthogonalLoop=1;jettySize=auto;html=1;exitX=1;exitY=0.5;exitDx=0;exitDy=0;entryX=0;entryY=0.5;entryDx=0;entryDy=0;" edge="1" parent="1" source="Ncdaa-sAqrYBmP8-Mcvt-21" target="Ncdaa-sAqrYBmP8-Mcvt-8">
          <mxGeometry relative="1" as="geometry">
            <mxPoint x="620" y="410" as="targetPoint" />
          </mxGeometry>
        </mxCell>
        <mxCell id="Ncdaa-sAqrYBmP8-Mcvt-21" value="WealthWish" style="swimlane;whiteSpace=wrap;html=1;" parent="1" vertex="1">
          <mxGeometry x="345" y="390" width="270" height="110" as="geometry" />
        </mxCell>
        <mxCell id="Ncdaa-sAqrYBmP8-Mcvt-22" value="fire planner" style="rounded=1;whiteSpace=wrap;html=1;" parent="Ncdaa-sAqrYBmP8-Mcvt-21" vertex="1">
          <mxGeometry x="10" y="30" width="120" height="60" as="geometry" />
        </mxCell>
        <mxCell id="Ncdaa-sAqrYBmP8-Mcvt-23" value="goal planner" style="rounded=1;whiteSpace=wrap;html=1;" parent="Ncdaa-sAqrYBmP8-Mcvt-21" vertex="1">
          <mxGeometry x="140" y="30" width="120" height="60" as="geometry" />
        </mxCell>
        <mxCell id="Ncdaa-sAqrYBmP8-Mcvt-24" style="edgeStyle=orthogonalEdgeStyle;rounded=0;orthogonalLoop=1;jettySize=auto;html=1;exitX=0.5;exitY=1;exitDx=0;exitDy=0;entryX=0.5;entryY=0;entryDx=0;entryDy=0;" parent="1" source="Ncdaa-sAqrYBmP8-Mcvt-15" target="Ncdaa-sAqrYBmP8-Mcvt-21" edge="1">
          <mxGeometry relative="1" as="geometry" />
        </mxCell>
      </root>
    </mxGraphModel>
  </diagram>
</mxfile>
